<?xml version="1.0"?>
<svg version="1.0" 
 width="208.000000pt" height="208.000000pt" viewBox="0 0 208.000000 208.000000"
 preserveAspectRatio="xMidYMid meet">

<g transform="translate(0.000000,208.000000) scale(0.100000,-0.100000)"
fill="white" stroke="white" stroke-width="10px">
<path fill="#1C2600" stroke="blue" d="M0 1040 l0 -1040 1040 0 1040 0 0 1040 0 1040 -1040 0 -1040 0 0
-1040z m1315 946 c467 -141 762 -584 705 -1061 -29 -239 -126 -433 -303 -601
-249 -237 -585 -324 -922 -239 -336 85 -596 337 -701 680 -26 84 -28 103 -28
270 -1 211 12 273 94 440 132 269 380 463 680 530 46 10 111 14 225 11 139 -3
172 -7 250 -30z"/>
<path fill="#1C2600" d="M939 1960 c-315 -39 -587 -232 -728 -515 -121 -244 -127 -521 -18
-775 43 -100 97 -179 182 -269 122 -129 269 -215 445 -262 110 -30 318 -32
424 -6 354 89 614 349 703 703 26 106 24 314 -6 424 -25 96 -83 225 -132 297
-72 105 -205 227 -319 291 -158 89 -377 133 -551 112z m307 -502 c4 -4 3 -36
-2 -70 l-9 -63 -58 0 c-71 0 -87 -16 -87 -87 l0 -48 76 0 c74 0 76 -1 70 -22
-3 -13 -6 -44 -6 -70 l0 -48 -70 0 -70 0 0 -225 0 -225 -85 0 -85 0 0 225 0
225 -45 0 -45 0 0 70 0 70 45 0 45 0 0 83 c0 96 17 140 70 175 32 22 43 23
142 20 58 -2 110 -6 114 -10z"/>
</g>
</svg>