<?xml version="1.0">
<svg version="1.0" width="208.000000pt" height="208.000000pt" viewBox="0 0 208.000000 208.000000"
 preserveAspectRatio="xMidYMid meet">

<g transform="translate(0.000000,208.000000) scale(0.100000,-0.100000)"
fill="#1C2600" stroke="white" stroke-width="10px">
<path d="M0 1040 l0 -1040 1040 0 1040 0 0 1040 0 1040 -1040 0 -1040 0 0
-1040z m1315 946 c467 -141 762 -584 705 -1061 -27 -226 -115 -410 -274 -573
-250 -257 -601 -356 -951 -267 -336 85 -596 337 -701 680 -26 84 -28 103 -28
270 -1 211 12 273 94 440 132 269 380 463 680 530 46 10 111 14 225 11 139 -3
172 -7 250 -30z"/>
<path fill="#1C2600" d="M939 1960 c-315 -39 -587 -232 -728 -515 -121 -244 -127 -521 -18
-775 43 -100 97 -179 182 -269 122 -129 269 -215 445 -262 110 -30 318 -32
424 -6 354 89 614 349 703 703 26 106 24 314 -6 424 -25 96 -83 225 -132 297
-72 105 -205 227 -319 291 -158 89 -377 133 -551 112z m469 -518 c65 -47 67
-55 70 -382 4 -315 0 -347 -44 -399 -49 -58 -77 -62 -409 -59 -332 3 -340 5
-387 70 -23 33 -23 36 -26 358 l-3 326 23 34 c13 19 39 45 58 58 l34 23 326
-3 c322 -3 325 -3 358 -26z"/>
<path fill="#1C2600" d="M1230 1295 l0 -65 70 0 70 0 0 65 0 65 -70 0 -70 0 0 -65z"/>
<path fill="#1C2600" d="M966 1161 c-66 -44 -86 -132 -46 -199 27 -43 99 -76 146 -67 72 13
134 99 120 167 -8 40 -41 85 -76 103 -40 21 -109 19 -144 -4z"/>
<path fill="#1C2600" d="M700 935 c0 -184 0 -186 25 -210 l24 -25 294 0 294 0 21 23 c21 22
22 32 22 210 l0 187 -53 0 -54 0 5 -55 c7 -82 -14 -142 -68 -195 -109 -110
-293 -88 -375 44 -27 44 -30 58 -30 128 l1 78 -53 0 -53 0 0 -185z"/>
</g>
</svg>
