<?xml version="1.0"?>
<svg version="1.0"
 width="208.000000pt" height="208.000000pt" viewBox="0 0 208.000000 208.000000"
 preserveAspectRatio="xMidYMid meet">

<g transform="translate(0.000000,208.000000) scale(0.100000,-0.100000)"
fill="white" stroke="white" stroke-width="10px">
<path fill="#1C2600" d="M0 1040 l0 -1040 1040 0 1040 0 0 1040 0 1040 -1040 0 -1040 0 0
-1040z m1315 946 c467 -141 762 -584 705 -1061 -27 -226 -115 -410 -274 -573
-250 -257 -601 -356 -951 -267 -336 85 -596 337 -701 680 -26 84 -28 103 -28
270 -1 211 12 273 94 440 132 269 380 463 680 530 46 10 111 14 225 11 139 -3
172 -7 250 -30z"/>
<path fill="#1C2600" d="M939 1960 c-315 -39 -587 -232 -728 -515 -121 -244 -127 -521 -18
-775 43 -100 97 -179 182 -269 122 -129 269 -215 445 -262 110 -30 318 -32
424 -6 354 89 614 349 703 703 26 106 24 314 -6 424 -25 96 -83 225 -132 297
-72 105 -205 227 -319 291 -158 89 -377 133 -551 112z m-162 -500 c35 -21 51
-68 39 -115 -16 -63 -129 -84 -182 -34 -33 31 -34 106 -1 136 42 38 95 43 144
13z m555 -240 c51 -15 97 -56 122 -110 18 -39 21 -68 24 -237 l4 -193 -101 0
-101 0 0 143 c0 78 -5 159 -10 179 -22 77 -98 99 -147 42 -22 -24 -23 -33 -23
-195 l0 -169 -100 0 -100 0 0 270 0 270 100 0 100 0 0 -27 c0 -25 1 -25 19 -9
45 41 139 56 213 36z m-522 -270 l0 -270 -90 0 -90 0 0 270 0 270 90 0 90 0 0
-270z"/>
</g>
</svg>
