<?xml version="1.0"?>
<svg version="1.0" width="2885.000000pt" height="524.000000pt" viewBox="0 0 2885.000000 524.000000"
 preserveAspectRatio="xMidYMid meet">

<g transform="translate(0.000000,524.000000) scale(0.100000,-0.100000)"
fill="#1C2631" stroke="none">
<path d="M0 5101 l0 -138 113 4 c423 17 1343 39 1347 33 19 -29 1475 -2008
1476 -2007 1 1 -2 110 -7 242 -4 132 -8 594 -8 1028 l-1 787 93 0 c87 0 1197
25 1510 34 l147 4 0 -2484 c0 -1980 -3 -2484 -12 -2484 -7 0 -278 -7 -603 -15
-324 -8 -649 -15 -721 -15 l-130 0 -646 877 c-917 1245 -841 1146 -833 1098 3
-22 8 -484 12 -1027 l5 -986 -73 -6 c-41 -3 -353 -13 -694 -21 -341 -9 -633
-17 -650 -19 -16 -1 6395 -4 14248 -4 l14277 -2 -1 1963 c0 1938 0 1961 -19
1890 -99 -379 -414 -641 -816 -678 -143 -13 -351 28 -489 98 -196 98 -361 268
-451 461 -59 129 -76 205 -81 371 -6 165 9 257 62 386 105 259 343 462 622
531 130 32 322 30 456 -5 174 -46 325 -136 453 -268 121 -126 198 -262 239
-421 l24 -93 1 503 0 502 -5697 -2 c-3134 -1 -5376 -5 -4983 -9 393 -3 745 -7
783 -8 l67 -1 0 -1587 c0 -1042 -4 -1628 -11 -1703 -85 -925 -644 -1516 -1609
-1704 -233 -46 -395 -60 -675 -60 -282 0 -450 15 -675 60 -890 177 -1438 675
-1600 1456 -50 241 -50 241 -50 1955 l0 1603 -7200 0 -7200 0 0 -139z m20533
103 l627 -7 0 -1712 0 -1713 378 -6 c207 -4 503 -8 657 -9 l279 -2 641 1699
640 1698 260 -6 c143 -4 550 -13 905 -22 454 -10 646 -18 651 -26 4 -6 139
-367 299 -802 1083 -2932 1550 -4199 1548 -4201 -3 -2 -1150 28 -1564 41
l-211 6 -98 307 c-54 168 -101 313 -106 322 -7 13 -81 17 -601 27 -326 7 -674
15 -773 19 l-180 6 -104 -314 c-57 -173 -106 -317 -110 -320 -3 -3 -170 -2
-371 2 -578 12 -1557 28 -2290 39 -371 5 -883 12 -1137 16 l-463 6 0 2486 0
2485 248 -7 c136 -3 529 -9 875 -12z m-7963 -48 c453 -68 742 -193 960 -415
197 -201 292 -442 307 -775 21 -471 -137 -824 -464 -1043 l-90 -60 71 -34
c315 -150 543 -426 630 -762 62 -238 62 -552 1 -792 -159 -628 -687 -966
-1630 -1045 -112 -9 -1767 -29 -2537 -30 l-248 0 0 2480 c0 1364 1 2481 3
2482 7 6 1263 14 2012 13 766 -1 884 -4 985 -19z m-3590 -701 l0 -705 -127 0
c-268 0 -1752 -21 -1840 -26 l-93 -6 0 -200 0 -201 268 6 c147 4 517 9 822 12
305 3 592 8 638 11 l82 5 0 -664 0 -664 -512 -6 c-282 -4 -690 -10 -905 -14
l-393 -6 0 -210 0 -209 338 6 c328 7 1605 26 1710 26 l52 0 0 -709 0 -708
-427 -7 c-236 -4 -725 -11 -1088 -16 -844 -13 -1705 -28 -2052 -36 l-273 -7 0
2485 0 2485 363 7 c1031 19 1429 26 2147 36 791 11 971 14 1178 18 l112 2 0
-705z"/>
<path d="M24642 3315 c-76 -255 -343 -1197 -340 -1200 2 -2 167 -6 367 -10
354 -8 364 -7 359 11 -58 202 -351 1226 -357 1244 -7 22 -11 17 -29 -45z"/>
<path d="M11310 3580 l0 -281 318 3 c297 3 320 4 362 24 64 30 107 69 135 125
74 145 17 315 -128 380 -51 23 -61 24 -369 27 l-318 3 0 -281z"/>
<path d="M11317 2163 c-4 -3 -7 -146 -7 -318 l0 -311 338 3 c373 4 447 13 524
62 82 52 119 130 121 251 2 178 -86 281 -265 310 -69 11 -701 14 -711 3z"/>
<path d="M16142 3688 l3 -1553 28 -79 c47 -132 109 -205 224 -258 165 -78 472
-77 639 1 118 55 186 143 231 296 16 56 18 167 21 1603 l3 1542 -576 0 -575 0
2 -1552z"/>
</g>
</svg>
