<?xml version="1.0"?>
<svg version="1.0" width="208.000000pt" height="208.000000pt" viewBox="0 0 208.000000 208.000000"
 preserveAspectRatio="xMidYMid meet">

<g transform="translate(0.000000,208.000000) scale(0.100000,-0.100000)"
fill="white" stroke="white" stroke-width="10px">
<path fill="#1C2600" d="M0 1040 l0 -1040 1040 0 1040 0 0 1040 0 1040 -1040 0 -1040 0 0
-1040z m1315 946 c518 -156 815 -680 680 -1200 -70 -269 -265 -506 -520 -634
-143 -71 -345 -110 -505 -97 -417 34 -752 306 -876 710 -26 84 -28 103 -28
270 -1 211 12 273 94 440 132 269 380 463 680 530 46 10 111 14 225 11 139 -3
172 -7 250 -30z"/>
<path fill="#1C2600" d="M939 1960 c-315 -39 -587 -232 -728 -515 -121 -244 -127 -521 -18
-775 43 -100 97 -179 182 -269 122 -129 269 -215 445 -262 110 -30 318 -32
424 -6 582 146 885 761 636 1294 -48 102 -88 161 -164 242 -175 183 -378 278
-631 294 -44 3 -110 2 -146 -3z m371 -646 l48 -26 47 21 c26 12 49 21 51 21
10 0 2 -20 -21 -54 -26 -38 -23 -42 19 -26 39 15 32 -5 -19 -54 -34 -33 -45
-52 -45 -75 0 -153 -117 -344 -258 -419 -152 -81 -335 -83 -485 -5 l-52 27 70
7 c39 4 94 17 123 29 51 22 67 40 36 40 -41 0 -102 55 -118 107 -7 21 -5 22
26 17 l33 -6 -30 20 c-60 39 -95 96 -95 154 0 15 4 16 26 8 36 -14 36 -14 9
26 -20 29 -25 50 -25 96 0 33 5 68 11 79 10 19 13 18 58 -24 83 -77 171 -123
274 -141 l37 -7 0 41 c0 68 48 140 110 163 42 15 123 6 170 -19z"/>
</g>
</svg>
